<?xml version="1.0" encoding="utf-8"?>
<!-- Generator: Adobe Illustrator 27.9.0, SVG Export Plug-In . SVG Version: 6.00 Build 0)  -->
<svg version="1.1" id="레이어_1" xmlns="http://www.w3.org/2000/svg" xmlns:xlink="http://www.w3.org/1999/xlink" x="0px"
	 y="0px" viewBox="0 0 1097 151" style="enable-background:new 0 0 1097 151;" xml:space="preserve">
<style type="text/css">
	.st0{fill:#3498E0;}
</style>
<g>
	<g>
		<path class="st0" d="M44.22,150.88H0V2.01h119.69v36.18H44.22v25.2h59.37v36.17H44.22V150.88z M8,142.88h28.22V91.57h59.37V71.39
			H36.22v-41.2h75.47V10.01H8V142.88z"/>
	</g>
	<g>
		<path class="st0" d="M263.44,150.88h-48.49l-23.14-42.26H170v42.26h-44.22V2.01h88.52c15.12,0,26.39,3.61,33.52,10.73
			c7.12,7.12,10.73,18.4,10.73,33.52v18.11c0,11.82-2.05,21.24-6.1,28.01c-3.43,5.74-8.51,9.94-15.13,12.54L263.44,150.88z
			 M219.69,142.88h30l-24.36-42.88l5.11-1.28c7.04-1.76,11.99-5.18,15.15-10.45c3.3-5.51,4.97-13.56,4.97-23.91V46.26
			c0-12.92-2.82-22.29-8.39-27.86c-5.57-5.57-14.94-8.39-27.86-8.39h-80.52v132.87H162v-42.26h34.54L219.69,142.88z M206.25,80.45
			H162V30.19h44.25c10.22,0,16.07,5.86,16.07,16.07v18.11C222.33,74.59,216.47,80.45,206.25,80.45z M170,72.45h36.25
			c5.81,0,8.07-2.26,8.07-8.07V46.26c0-5.81-2.26-8.07-8.07-8.07H170V72.45z"/>
	</g>
	<g>
		<path class="st0" d="M361.21,152.9H310.9c-15.12,0-26.4-3.61-33.52-10.73c-7.12-7.12-10.73-18.39-10.73-33.52v-64.4
			c0-15.12,3.61-26.4,10.73-33.52C284.5,3.61,295.77,0,310.9,0h50.31c15.12,0,26.39,3.61,33.52,10.73
			c7.12,7.13,10.73,18.4,10.73,33.52v64.4c0,15.12-3.61,26.4-10.73,33.52C387.61,149.29,376.33,152.9,361.21,152.9z M310.9,8
			c-12.92,0-22.3,2.82-27.86,8.39c-5.57,5.57-8.39,14.94-8.39,27.86v64.4c0,12.92,2.82,22.3,8.39,27.86
			c5.56,5.57,14.94,8.39,27.86,8.39h50.31c12.92,0,22.3-2.82,27.86-8.39c5.57-5.57,8.39-14.94,8.39-27.86v-64.4
			c0-12.92-2.82-22.29-8.39-27.86C383.5,10.82,374.13,8,361.21,8H310.9z M353.16,124.72h-34.21c-10.22,0-16.08-5.86-16.08-16.08
			v-64.4c0-10.22,5.86-16.08,16.08-16.08h34.21c10.22,0,16.07,5.86,16.07,16.08v64.4C369.23,118.86,363.37,124.72,353.16,124.72z
			 M318.95,36.17c-5.81,0-8.08,2.26-8.08,8.08v64.4c0,5.81,2.26,8.08,8.08,8.08h34.21c5.81,0,8.07-2.26,8.07-8.08v-64.4
			c0-5.81-2.26-8.08-8.07-8.08H318.95z"/>
	</g>
	<g>
		<path class="st0" d="M548.34,150.88h-44.56L461.8,77.42v73.46h-44.22V2.01h44.56l41.98,73.46V2.01h44.22V150.88z M508.42,142.88
			h31.91V10.01h-28.22v95.59L457.5,10.01h-31.92v132.87h28.22V47.3L508.42,142.88z"/>
	</g>
	<g>
		<path class="st0" d="M640.91,150.88h-44.22V38.19h-42.26V2.01h128.75v36.18h-42.26V150.88z M604.69,142.88h28.22V30.19h42.26
			V10.01H562.42v20.18h42.26V142.88z"/>
	</g>
	<g>
		<path class="st0" d="M808.95,150.88H689.26V2.01h119.69v36.18h-75.47v19.17h59.37v36.18h-59.37v21.18h75.47V150.88z
			 M697.26,142.88h103.69v-20.17h-75.47V85.53h59.37V65.35h-59.37V30.19h75.47V10.01H697.26V142.88z"/>
	</g>
	<g>
		<path class="st0" d="M947.81,150.88h-44.56l-41.98-73.46v73.46h-44.22V2.01h44.56l41.98,73.46V2.01h44.22V150.88z M907.89,142.88
			h31.91V10.01h-28.22v95.59l-54.62-95.59h-31.92v132.87h28.22V47.3L907.89,142.88z"/>
	</g>
	<g>
		<path class="st0" d="M1046.44,150.88h-82.49V2.01h82.49c16.19,0,28.75,4.35,37.34,12.94c8.59,8.59,12.95,21.16,12.95,37.34v48.3
			c0,16.19-4.36,28.75-12.95,37.34S1062.63,150.88,1046.44,150.88z M971.96,142.88h74.49c13.99,0,24.65-3.57,31.69-10.6
			c7.03-7.03,10.6-17.69,10.6-31.68V52.3c0-13.99-3.57-24.65-10.6-31.69c-7.03-7.03-17.69-10.6-31.68-10.6h-74.49V142.88z
			 M1038.39,122.71h-38.21V30.19h38.21c14.26,0,22.11,7.85,22.11,22.11v48.3C1060.5,114.86,1052.65,122.71,1038.39,122.71z
			 M1008.18,114.71h30.21c9.89,0,14.11-4.22,14.11-14.11V52.3c0-9.89-4.22-14.11-14.11-14.11h-30.21V114.71z"/>
	</g>
</g>
</svg>
