<?xml version="1.0" encoding="utf-8"?>
<!-- Generator: Adobe Illustrator 27.9.0, SVG Export Plug-In . SVG Version: 6.00 Build 0)  -->
<svg version="1.1" id="레이어_1" xmlns="http://www.w3.org/2000/svg" xmlns:xlink="http://www.w3.org/1999/xlink" x="0px"
	 y="0px" viewBox="0 0 1168 151" style="enable-background:new 0 0 1168 151;" xml:space="preserve">
<style type="text/css">
	.st0{fill:#3498E0;}
	.st1{fill:#F4B60B;}
</style>
<g>
	<path class="st0" d="M0,5.06h84.52c14.09,0,24.32,3.19,30.69,9.56c6.37,6.37,9.56,16.6,9.56,30.69v20.12
		c0,14.09-3.19,24.32-9.56,30.69c-6.37,6.37-16.6,9.56-30.69,9.56h-48.3v40.25H0V5.06z M88.55,45.31c0-8.05-4.03-12.07-12.07-12.07
		H36.22v44.27h40.25c8.05,0,12.07-4.02,12.07-12.08V45.31z"/>
	<path class="st0" d="M269.67,107.7c0,14.09-3.19,24.32-9.56,30.69c-6.37,6.37-16.6,9.56-30.69,9.56h-50.31
		c-14.09,0-24.32-3.19-30.69-9.56c-6.37-6.37-9.56-16.6-9.56-30.69V43.3c0-14.09,3.18-24.32,9.56-30.69
		c6.37-6.37,16.6-9.56,30.69-9.56h50.31c14.09,0,24.32,3.19,30.69,9.56c6.37,6.37,9.56,16.6,9.56,30.69V107.7z M233.44,43.3
		c0-8.05-4.02-12.08-12.07-12.08h-34.21c-8.05,0-12.08,4.02-12.08,12.08v64.4c0,8.05,4.03,12.07,12.08,12.07h34.21
		c8.05,0,12.07-4.03,12.07-12.07V43.3z"/>
	<path class="st0" d="M289.79,5.06h84.52c14.09,0,24.32,3.19,30.69,9.56c6.37,6.37,9.56,16.6,9.56,30.69v18.11
		c0,11.14-1.85,19.79-5.53,25.96c-3.69,6.17-9.56,10.26-17.61,12.28l25.16,44.27h-39.24l-23.14-42.26h-28.17v42.26h-36.22V5.06z
		 M378.34,45.31c0-8.05-4.02-12.07-12.07-12.07h-40.25V75.5h40.25c8.05,0,12.07-4.02,12.07-12.07V45.31z"/>
	<path class="st0" d="M503.11,145.93h-36.22V33.24h-42.26V5.06h120.75v28.18h-42.26V145.93z"/>
	<path class="st0" d="M595.68,145.93h-36.22V5.06h111.69v28.18h-75.47v33.2h59.37v28.17h-59.37V145.93z"/>
	<path class="st0" d="M868.36,117.76h73.45v28.17H832.14V5.06h36.22V117.76z"/>
	<path class="st0" d="M1022.31,145.93h-72.45v-28.17h18.11V33.24h-18.11V5.06h72.45v28.18h-18.11v84.52h18.11V145.93z"/>
	<path class="st0" d="M1167.21,107.7c0,14.09-3.19,24.32-9.56,30.69c-6.37,6.37-16.6,9.56-30.69,9.56h-50.31
		c-14.09,0-24.32-3.19-30.69-9.56c-6.37-6.37-9.56-16.6-9.56-30.69V43.3c0-14.09,3.18-24.32,9.56-30.69
		c6.37-6.37,16.6-9.56,30.69-9.56h50.31c14.09,0,24.32,3.19,30.69,9.56c6.37,6.37,9.56,16.6,9.56,30.69V107.7z M1130.99,43.3
		c0-8.05-4.02-12.08-12.07-12.08h-34.21c-8.05,0-12.08,4.02-12.08,12.08v64.4c0,8.05,4.03,12.07,12.08,12.07h34.21
		c8.05,0,12.07-4.03,12.07-12.07V43.3z"/>
	<g>
		<path class="st1" d="M720.98,119.15L708.35,78.2c-0.54-1.76-0.54-3.63,0-5.39l12.64-40.95h20.09V3.05h-27.15
			c-7.51,0-14.18,4.8-16.56,11.93L679.8,67.56c-1.72,5.15-1.72,10.72,0,15.88l17.56,52.58c2.38,7.12,9.05,11.93,16.56,11.93h27.15
			v-28.8H720.98z"/>
		<path class="st1" d="M813.42,67.56l-17.56-52.58c-2.38-7.12-9.05-11.93-16.56-11.93h-27.15v28.8h20.09l12.64,40.95
			c0.54,1.76,0.54,3.63,0,5.39l-12.64,40.95h-20.09v28.8h27.15c7.51,0,14.18-4.8,16.56-11.93l17.56-52.58
			C815.15,78.29,815.15,72.71,813.42,67.56z"/>
	</g>
</g>
</svg>
